<svg xmlns="http://www.w3.org/2000/svg" viewBox="0 0 196.18 189.51" version="1.0">
    <path fill="currentColor" d="M72.567 186.38c-1.364-2.01-6.399-11.31-11.189-20.66s-8.727-16.68-8.75-16.29c-.023.4.604 2.65 1.393 5 2.114 6.32 5.57 20.34 5.534 22.45-.03 1.72-.139 1.7-1.619-.16-2.735-3.45-12.083-23.52-16.3-35-3.972-10.81-4.031-10.9-3.43-5.25.754 7.09-.623 7.5-3.41 1-4.692-10.94-5.903-18.57-7.187-45.252-1.03-21.405-.428-30.477 2.398-36.142 1.899-3.806 2.132-3.474-9.182-13.08-7.62-6.469-9.091-7.309-13.64-7.789l-5.099-.537 5.5-1.849c3.025-1.017 5.896-2.212 6.379-2.655 1.43-1.311-4.175-5.72-9.536-7.5-2.735-.909-4.713-1.911-4.396-2.228.318-.318 7.21-.654 15.315-.747 15.534-.179 19.59.449 31.738 4.913 3.85 1.414 8.627 2.581 10.615 2.593 8.281.048 13.855-9.294 11.667-19.553C67.941.95 69.214.01 79.728 0c5.795-.006 11.518.803 18.664 2.636 5.668 1.455 13.898 3.327 18.298 4.161 17.32 3.286 28.67 8.315 15.78 6.993-8.74-.896-6.49.3 13.08 6.945 15.8 5.368 29.2 11.327 30.62 13.617.55.886-.77 1.026-5.26.558-3.29-.345-6.85-.903-7.91-1.241-3.55-1.14 1.45 2.317 9.85 6.804 8.16 4.359 14.74 9.211 14.74 10.879 0 .608-1.83.727-4.75.31-5.22-.745-5.23-.76 2 5.006 4.46 3.559 6.32 7.566 3.5 7.537-.69-.008-4.59-1.92-8.66-4.25-4.07-2.331-9.25-5.294-11.5-6.586-7.93-4.552-12.92-4.83-14.21-.793-.38 1.178-.8 4.479-.93 7.336-.31 6.717-4.57 13.252-8.64 13.285-3.12.024-4.34 1.354-2.55 2.794 1.73 1.396 22.07 9.255 35.24 13.618 6.05 2.003 12.8 4.663 15 5.91 3.94 2.235 4 2.351 4.09 8.231.15 9.8-4.35 16.24-12.97 18.58-3.49.94-5.13.79-10.71-1.01-6.88-2.21-10.91-4.55-24.75-14.42-4.58-3.26-10.65-6.82-13.5-7.904l-5.16-1.968-4.5 5.092c-2.48 2.81-5.32 5.1-6.31 5.1-1 0-4.02 1.44-6.72 3.21-3.54 2.31-5.09 4.06-5.55 6.25-.36 1.67-1.21 3.71-1.9 4.54-1.98 2.36-4.244 13.45-5.102 25-.306 4.12-1.027 8.46-1.6 9.64-.802 1.64-.553 3.46 1.067 7.79 1.161 3.1 2.115 6.54 2.115 7.64 0 3.05-2.787 3.48-5.58.86l-2.475-2.33 1.526 4.33c3.67 10.4 1.08 11.07-6.069 1.57-3.128-4.15-5.855-7.39-6.06-7.18-.206.21.825 2.99 2.291 6.2 2.838 6.19 3.637 12.5 1.671 13.19-.679.24-4.409-5.1-8.672-12.4-4.114-7.05-8.18-13.71-9.036-14.81-1.422-1.83-1.436-1.66-.168 2 .763 2.2 2.786 7.34 4.495 11.43 5.222 12.48 5.255 19.92.054 12.23z"/>
</svg>